<?xml version="1.0" standalone="no"?>
<!DOCTYPE svg PUBLIC "-//W3C//DTD SVG 20010904//EN"
 "http://www.w3.org/TR/2001/REC-SVG-20010904/DTD/svg10.dtd">
<svg version="1.0" xmlns="http://www.w3.org/2000/svg"
 width="240.000000pt" height="240.000000pt" viewBox="0 0 240.000000 240.000000"
 preserveAspectRatio="xMidYMid meet">
<metadata>
Created by potrace 1.14, written by Peter Selinger 2001-2017
</metadata>
<g transform="translate(0.000000,240.000000) scale(0.100000,-0.100000)"
fill="#000000" stroke="none">
<path d="M335 2066 c-37 -16 -70 -52 -84 -89 -16 -42 -14 -1590 2 -1637 7 -20
30 -48 55 -67 l43 -33 853 3 853 2 37 29 c70 53 67 9 64 899 -3 771 -4 803
-22 830 -11 16 -35 39 -55 53 l-35 24 -840 -1 c-681 0 -847 -2 -871 -13z
m1591 -172 c15 -11 37 -33 48 -48 21 -27 21 -37 21 -645 l0 -618 -29 -37 c-52
-69 -21 -67 -780 -64 l-684 3 -39 31 c-65 53 -64 41 -61 704 l3 597 29 37 c52
69 18 66 778 63 676 -2 687 -2 714 -23z"/>
<path d="M597 1598 l-67 -71 184 -183 184 -184 -184 -184 -185 -185 72 -71 71
-71 255 256 255 255 -255 255 c-140 140 -256 255 -258 255 -2 -1 -34 -33 -72
-72z"/>
<path d="M1240 760 l0 -100 300 0 300 0 0 100 0 100 -300 0 -300 0 0 -100z"/>
</g>
</svg>
